<svg width="143" height="38" viewBox="0 0 143 38" fill="none" xmlns="http://www.w3.org/2000/svg">
<path d="M0.455122 0C0.151707 0 0 0.151707 0 0.455122V2.57902C0 2.90772 0.151707 3.03414 0.455122 3.03414H7.91406V13.325C7.91406 13.7042 8.11634 13.8812 8.4956 13.8812H10.9735C11.3528 13.8812 11.5297 13.7042 11.5297 13.325V3.03414H18.9887C19.2921 3.03414 19.4438 2.90772 19.4438 2.57902V0.455122C19.4438 0.151707 19.2921 0 18.9887 0H0.455122Z" fill="black"/>
<path d="M26.8437 0C22.2925 0 20.826 1.4665 20.826 5.13276V8.77374C20.826 12.44 22.2925 13.8812 26.8437 13.8812H37.7413C38.0447 13.8812 38.1964 13.7295 38.1964 13.4261V11.3022C38.1964 10.9988 38.0447 10.8471 37.7413 10.8471H27.1977C24.9979 10.8471 24.4164 10.1897 24.4164 8.59674V7.98991H37.1851C38.1712 7.98991 38.6263 7.63593 38.6263 6.5487V4.14666C38.6263 1.08723 37.716 0 34.2521 0H26.8437ZM24.4164 5.05691C24.4164 3.4387 24.9979 2.80658 27.1977 2.80658H33.5441C34.7072 2.80658 35.0864 3.21114 35.0864 4.2478V5.30975C35.0864 5.63845 34.96 5.73959 34.6566 5.73959H24.4164V5.05691Z" fill="black"/>
<path d="M41.131 0C40.6759 0 40.6253 0.429838 40.8782 0.682683L47.4016 6.67512L40.2714 13.2238C40.0185 13.4767 40.0691 13.8812 40.5495 13.8812H43.4066C43.7606 13.8812 43.9376 13.7801 44.1146 13.6031L49.6266 8.69788L54.987 13.6031C55.1639 13.7801 55.3409 13.8812 55.7202 13.8812H58.9313C59.3865 13.8812 59.437 13.4767 59.2095 13.2238L52.2562 6.87739L59.0072 0.682683C59.26 0.429838 59.2095 0 58.7291 0H55.8719C55.5179 0 55.3409 0.101138 55.1639 0.303415L50.0565 4.85463L45.0754 0.303415C44.8731 0.101138 44.6961 0 44.3422 0H41.131Z" fill="black"/>
<path d="M61.89 0C61.5107 0 61.3085 0.202276 61.3085 0.581544V13.325C61.3085 13.7042 61.5107 13.8812 61.89 13.8812H64.3679C64.7472 13.8812 64.9242 13.7042 64.9242 13.325V8.29333H76.4539V13.325C76.4539 13.7042 76.6309 13.8812 77.0102 13.8812H79.4881C79.8673 13.8812 80.0696 13.7042 80.0696 13.325V0.581544C80.0696 0.202276 79.8673 0 79.4881 0H77.0102C76.6309 0 76.4539 0.202276 76.4539 0.581544V5.30975H64.9242V0.581544C64.9242 0.202276 64.7472 0 64.3679 0H61.89Z" fill="black"/>
<path d="M89.0257 0C84.4744 0 83.0079 1.4665 83.0079 5.13276V8.77374C83.0079 12.44 84.4744 13.8812 89.0257 13.8812H96.1812C100.732 13.8812 102.199 12.44 102.199 8.77374V5.13276C102.199 1.4665 100.732 0 96.1812 0H89.0257ZM86.6236 5.73959C86.6236 3.61569 87.2052 2.98358 89.3796 2.98358H95.8272C98.027 2.98358 98.6085 3.61569 98.6085 5.73959V8.14162C98.6085 10.2655 98.027 10.9229 95.8272 10.9229H89.3796C87.2052 10.9229 86.6236 10.2655 86.6236 8.14162V5.73959Z" fill="black"/>
<path d="M28.7456 18.7828C27.0515 18.7828 26.3941 19.4655 26.3941 20.932V32.1078C26.3941 32.487 26.5964 32.664 26.9756 32.664H29.4535C29.8328 32.664 30.0098 32.487 30.0098 32.1078V22.5249C30.0098 22.1456 30.1615 21.9939 30.5408 21.9939H41.0086C41.3878 21.9939 41.5395 22.1456 41.5395 22.5249V32.1078C41.5395 32.487 41.7165 32.664 42.0958 32.664H44.5737C44.9529 32.664 45.1552 32.487 45.1552 32.1078V20.932C45.1552 19.4655 44.4978 18.7828 42.8038 18.7828H28.7456Z" fill="black"/>
<path d="M54.1113 18.7828C49.5601 18.7828 48.0936 20.2493 48.0936 23.9156V27.5565C48.0936 31.2228 49.5601 32.664 54.1113 32.664H61.2668C65.818 32.664 67.2845 31.2228 67.2845 27.5565V23.9156C67.2845 20.2493 65.818 18.7828 61.2668 18.7828H54.1113ZM51.7092 24.5224C51.7092 22.3985 52.2908 21.7664 54.4653 21.7664H60.9128C63.1126 21.7664 63.6941 22.3985 63.6941 24.5224V26.9244C63.6941 29.0483 63.1126 29.7057 60.9128 29.7057H54.4653C52.2908 29.7057 51.7092 29.0483 51.7092 26.9244V24.5224Z" fill="black"/>
<path d="M76.8715 18.7828C75.3797 18.7828 74.9752 19.4655 74.8235 20.5021C74.2925 24.3201 73.9132 26.8233 73.3569 28.1886C72.8513 29.4782 72.1939 29.6804 71.5617 29.6804H69.7666C69.4379 29.6804 69.2609 29.8574 69.2609 30.262V32.1078C69.2609 32.487 69.4379 32.664 69.7666 32.664H72.1686C74.3178 32.664 75.228 31.8549 75.8854 30.2873C76.7956 28.0369 77.3013 24.0167 77.5289 22.5502C77.5795 22.2468 77.6553 21.9939 78.1863 21.9939H83.673C84.0017 21.9939 84.1534 22.1204 84.1534 22.3985V32.0825C84.1534 32.4617 84.3304 32.664 84.6844 32.664H87.2382C87.5921 32.664 87.7439 32.4617 87.7439 32.0572V20.8056C87.7439 19.516 87.137 18.7828 85.62 18.7828H76.8715Z" fill="black"/>
<path d="M91.5209 18.7828C91.1417 18.7828 90.9394 18.9851 90.9394 19.3643V30.0344C90.9394 32.0825 91.6979 32.664 93.2403 32.664H94.6056C96.3503 32.664 96.7548 32.2595 97.6904 31.1722L105.301 22.2973C105.402 22.1709 105.478 22.1204 105.63 22.1204H105.857C106.009 22.1204 106.06 22.1962 106.06 22.3732V32.1078C106.06 32.487 106.237 32.664 106.616 32.664H109.094C109.473 32.664 109.675 32.487 109.675 32.1078V21.4377C109.675 19.3643 108.942 18.7828 107.4 18.7828H105.984C104.239 18.7828 103.784 19.2126 102.874 20.2746L95.2883 29.1495C95.2125 29.2759 95.1113 29.3265 94.9596 29.3265H94.7321C94.6056 29.3265 94.5298 29.2506 94.5298 29.0736V19.3643C94.5298 18.9851 94.3528 18.7828 93.9735 18.7828H91.5209Z" fill="black"/>
<path d="M118.252 18.7828C113.701 18.7828 112.234 20.2493 112.234 23.9156V27.5565C112.234 31.2228 113.701 32.664 118.252 32.664H128.416C128.72 32.664 128.872 32.5123 128.872 32.2089V30.085C128.872 29.7816 128.72 29.6299 128.416 29.6299H118.606C116.406 29.6299 115.85 28.9725 115.85 26.8486V24.5982C115.85 22.4743 116.406 21.8169 118.606 21.8169H128.416C128.72 21.8169 128.872 21.6905 128.872 21.3618V19.2379C128.872 18.9345 128.72 18.7828 128.416 18.7828H118.252Z" fill="black"/>
<path d="M110.181 1.6001C107.02 1.6001 105.799 2.72707 105.799 5.73231V8.42452C105.799 11.4298 107.02 12.5567 110.181 12.5567H117.241C117.475 12.5567 117.585 12.4472 117.585 12.2124V10.6785C117.585 10.4437 117.475 10.3341 117.241 10.3341H110.275C108.663 10.3341 108.194 9.84888 108.194 8.18973V5.9671C108.194 4.30795 108.663 3.83838 110.275 3.83838H117.241C117.475 3.83838 117.585 3.71316 117.585 3.47838V1.94445C117.585 1.70966 117.475 1.6001 117.241 1.6001H110.181Z" fill="#25B560"/>
<path d="M123.604 1.6001C120.443 1.6001 119.222 2.72707 119.222 5.73231V12.2124C119.222 12.4472 119.347 12.5567 119.582 12.5567H121.272C121.507 12.5567 121.616 12.4472 121.616 12.2124V5.9671C121.616 4.30795 122.086 3.83838 123.698 3.83838H130.037C130.272 3.83838 130.382 3.71316 130.382 3.47838V1.94445C130.382 1.70966 130.272 1.6001 130.037 1.6001H123.604Z" fill="#25B560"/>
<path d="M132.147 1.6001C131.912 1.6001 131.787 1.70966 131.787 1.94445V12.2124C131.787 12.4472 131.912 12.5567 132.147 12.5567H133.838C134.072 12.5567 134.182 12.4472 134.182 12.2124V7.92364H135.669C136.639 7.92364 136.999 8.08016 137.422 8.628L140.302 12.3533C140.412 12.4941 140.474 12.5567 140.74 12.5567H142.744C143.057 12.5567 143.025 12.2593 142.947 12.1498L139.738 8.08016C139.347 7.57929 138.971 7.21929 138.549 6.9532C138.846 6.70276 139.128 6.37406 139.488 5.90449L142.525 1.97575C142.634 1.83488 142.587 1.6001 142.321 1.6001H140.38C140.098 1.6001 140.036 1.66271 139.926 1.80358L137.234 5.40361C136.78 5.9984 136.483 6.10797 135.497 6.10797H134.182V1.94445C134.182 1.70966 134.072 1.6001 133.838 1.6001H132.147Z" fill="#25B560"/>
<path d="M49.5063 35.0718H66.4831V37.1186H49.5063V35.0718Z" fill="black"/>
</svg>
