<svg width="155" height="57" viewBox="0 0 155 57" fill="none" xmlns="http://www.w3.org/2000/svg">
<path d="M3.43599 0.235992C0.879995 0.235992 0.231995 1.24399 0.231995 4.01599V19.208C0.231995 19.748 0.519994 20 1.05999 20H4.58799C5.12799 20 5.38 19.748 5.38 19.208V4.87999C5.38 4.62799 5.452 4.51999 5.668 4.51999H5.99199C6.27999 4.51999 6.352 4.59199 6.46 4.80799L12.364 16.472C13.66 19.064 14.452 20 16.792 20H18.376C20.716 20 21.508 19.064 22.804 16.472L28.708 4.80799C28.816 4.59199 28.888 4.51999 29.176 4.51999H29.5C29.716 4.51999 29.788 4.62799 29.788 4.87999V19.208C29.788 19.748 30.076 20 30.58 20H34.144C34.648 20 34.936 19.748 34.936 19.208V4.01599C34.936 1.24399 34.288 0.235992 31.768 0.235992H28.168C26.044 0.235992 25.468 0.775992 24.352 2.97199L18.376 14.816C18.268 15.068 18.124 15.14 17.872 15.14H17.296C17.044 15.14 16.936 15.068 16.792 14.816L10.816 2.97199C9.69999 0.775992 9.12399 0.235992 6.99999 0.235992H3.43599Z" fill="#1D4175"/>
<path d="M47.6761 0.235992C41.1961 0.235992 39.1081 2.32399 39.1081 7.54399V12.728C39.1081 17.948 41.1961 20 47.6761 20H57.8641C64.3441 20 66.4321 17.948 66.4321 12.728V7.54399C66.4321 2.32399 64.3441 0.235992 57.8641 0.235992H47.6761ZM44.2561 8.40799C44.2561 5.38399 45.0841 4.48399 48.1801 4.48399H57.3601C60.4921 4.48399 61.3201 5.38399 61.3201 8.40799V11.828C61.3201 14.852 60.4921 15.788 57.3601 15.788H48.1801C45.0841 15.788 44.2561 14.852 44.2561 11.828V8.40799Z" fill="#1D4175"/>
<path d="M71.514 0.235992C70.974 0.235992 70.686 0.523993 70.686 1.06399V16.256C70.686 19.172 71.766 20 73.962 20H75.906C78.39 20 78.966 19.424 80.298 17.876L91.134 5.23999C91.278 5.05999 91.386 4.98799 91.602 4.98799H91.926C92.142 4.98799 92.214 5.09599 92.214 5.34799V19.208C92.214 19.748 92.466 20 93.006 20H96.534C97.074 20 97.362 19.748 97.362 19.208V4.01599C97.362 1.06399 96.318 0.235992 94.122 0.235992H92.106C89.622 0.235992 88.974 0.847993 87.678 2.35999L76.878 14.996C76.77 15.176 76.626 15.248 76.41 15.248H76.086C75.906 15.248 75.798 15.14 75.798 14.888V1.06399C75.798 0.523993 75.546 0.235992 75.006 0.235992H71.514Z" fill="#1D4175"/>
<path d="M1.05999 29.236C0.519994 29.236 0.231995 29.524 0.231995 30.064V48.208C0.231995 48.748 0.519994 49 1.05999 49H4.58799C5.12799 49 5.38 48.748 5.38 48.208V40.936H10.6C12.58 40.936 13.336 41.26 14.2 42.448L18.592 48.496C18.88 48.892 19.06 49 19.672 49H23.74C24.244 49 24.46 48.496 24.172 48.1L19.024 41.188C18.304 40.216 17.512 39.46 16.504 38.884C17.26 38.308 17.98 37.552 18.7 36.58L23.344 30.208C23.704 29.74 23.524 29.236 22.984 29.236H18.952C18.376 29.236 18.16 29.416 17.836 29.848L13.84 35.536C12.904 36.868 12.292 37.048 10.24 37.048H5.38V30.064C5.38 29.524 5.12799 29.236 4.58799 29.236H1.05999Z" fill="#1D4175"/>
<path d="M27.4891 29.236C27.0571 29.236 26.8411 29.452 26.8411 29.884V32.908C26.8411 33.376 27.0571 33.556 27.4891 33.556H42.5371C45.6691 33.556 46.4611 34.456 46.4611 36.76V37.444H31.8091C27.5611 37.444 26.2651 39.136 26.2651 42.16V43.888C26.2651 47.452 27.5611 49 31.8091 49H48.9451C51.0331 49 51.6091 48.46 51.6091 46.12V36.544C51.6091 31.324 49.5211 29.236 43.0411 29.236H27.4891ZM45.4171 45.04H33.2851C31.8091 45.04 31.2691 44.464 31.2691 43.168V42.412C31.2691 41.26 31.8091 40.648 33.2851 40.648H46.4611V43.816C46.4611 44.716 46.1731 45.04 45.4171 45.04Z" fill="#1D4175"/>
<path d="M65.5073 29.236C63.3833 29.236 62.8073 30.208 62.5913 31.684C61.8353 37.12 61.2953 40.684 60.5033 42.628C59.7833 44.464 58.8473 44.752 57.9473 44.752H54.8513C54.3113 44.752 54.0233 45.004 54.0233 45.544V54.94C54.0233 55.48 54.3113 55.732 54.8513 55.732H57.7313C58.2713 55.732 58.5233 55.48 58.5233 54.94V49H82.0673V54.94C82.0673 55.48 82.3553 55.732 82.8953 55.732H85.7753C86.3153 55.732 86.5673 55.48 86.5673 54.94V45.544C86.5673 45.004 86.3153 44.752 85.7753 44.752H80.9873V32.116C80.9873 30.28 80.1233 29.236 77.9633 29.236H65.5073ZM64.4273 44.752C65.5073 41.476 66.1553 36.508 66.4433 34.6C66.5153 34.168 66.6233 33.808 67.3793 33.808H75.1913C75.6593 33.808 75.8753 33.988 75.8753 34.384V44.752H64.4273Z" fill="#1D4175"/>
<path d="M98.1655 29.236C91.6855 29.236 89.5975 31.324 89.5975 36.544V56.164C89.5975 56.704 89.8855 56.956 90.4255 56.956H93.9535C94.4935 56.956 94.7455 56.704 94.7455 56.164V49H108.245C114.725 49 116.813 46.948 116.813 41.728V36.544C116.813 31.324 114.725 29.236 108.245 29.236H98.1655ZM94.7455 37.516C94.7455 34.492 95.5735 33.556 98.6695 33.556H107.741C110.873 33.556 111.701 34.492 111.701 37.516V40.72C111.701 43.78 110.873 44.68 107.741 44.68H94.7455V37.516Z" fill="#1D4175"/>
<path d="M121.785 29.236C121.281 29.236 121.029 29.524 121.029 30.1V47.956C121.029 48.64 121.353 49 122.037 49H139.821C144.861 49 146.841 47.056 146.841 43.312V40.9C146.841 37.228 144.861 35.248 139.821 35.248H126.177V30.1C126.177 29.524 125.925 29.236 125.421 29.236H121.785ZM138.813 39.064C140.973 39.064 141.729 39.784 141.729 41.332V42.7C141.729 44.248 140.973 44.968 138.813 44.968H126.537C126.285 44.968 126.177 44.824 126.177 44.536V39.064H138.813ZM150.585 29.236C150.045 29.236 149.793 29.524 149.793 30.064V48.208C149.793 48.748 150.045 49 150.585 49H154.113C154.653 49 154.905 48.748 154.905 48.208V30.064C154.905 29.524 154.653 29.236 154.113 29.236H150.585Z" fill="#1D4175"/>
</svg>
